<?xml version="1.0" encoding="UTF-8" standalone="no"?><!DOCTYPE svg PUBLIC "-//W3C//DTD SVG 1.1//EN"
        "http://www.w3.org/Graphics/SVG/1.1/DTD/svg11.dtd">
<svg xmlns:xlink="http://www.w3.org/1999/xlink" xmlns:serif="http://www.serif.com/" width="100%" height="100%" viewBox="0 0 280 188"
     version="1.1" xmlns="http://www.w3.org/2000/svg" xml:space="preserve"
     style="fill-rule:evenodd;clip-rule:evenodd;stroke-linejoin:round;stroke-miterlimit:1.41421;"><g id="g3014"><path id="path3022" d="M33.313,154.514c2.28,0 4.44,0.54 5.521,1.62c0.18,1.681 -1.321,4.381 -2.281,4.381c-1.14,-0.42 -2.22,-0.661 -3.54,-0.661c-5.46,0 -8.161,5.641 -8.161,11.221c0,3.48 1.2,5.582 3.961,5.582c2.94,0 5.94,-1.98 7.62,-3.48c0.42,0.298 0.96,1.26 0.96,2.34c0,1.2 -0.36,2.34 -1.44,3.42c-1.92,1.92 -5.16,3.54 -9.841,3.54c-5.4,0 -9.12,-3.06 -9.12,-10.202c0,-9.36 6.18,-17.761 16.261,-17.761l0.06,0Z" /><path
        id="path3026"
        d="M50.952,176.356c2.94,0 8.281,-5.161 9.781,-15.001c0.06,-0.6 0.12,-0.78 0.24,-1.38c-0.66,-0.24 -1.56,-0.42 -2.461,-0.42c-2.22,0 -4.5,0.66 -6.54,3.42c-2.1,2.94 -3,6.6 -3,9.541c0,2.519 0.72,3.84 1.92,3.84l0.06,0Zm-9.662,-2.7c0,-3.54 1.2,-9.721 5.702,-14.221c3.84,-3.96 8.52,-4.921 12.781,-4.921c2.82,0 6.66,0.9 9.06,1.381c-0.6,2.64 -2.04,12.6 -2.7,18.36c-0.3,2.461 -0.42,5.881 -0.3,7.141c-1.98,0.84 -5.7,1.08 -6.721,1.08c-0.539,0 -0.66,-2.46 -0.479,-4.8c0.059,-0.78 0.18,-1.92 0.239,-2.4c-2.34,3.9 -6.96,7.2 -11.82,7.2c-3.48,0 -5.762,-2.88 -5.762,-8.76l0,-0.06Z"
        /><path id="path3030"
                                                       d="M83.771,154.514c2.46,0 4.8,0.9 5.882,2.04c-0.06,1.681 -1.38,4.5 -3.482,3.72c-0.9,-0.3 -1.8,-0.539 -3,-0.539c-1.62,0 -3,0.72 -3,2.219c0,1.14 0.84,1.981 4.86,4.801c2.882,2.1 4.022,3.96 4.022,6.6c0,4.382 -4.142,9.122 -11.342,9.122c-2.94,0 -5.521,-1.14 -6.361,-2.34c-1.08,-1.8 -0.24,-5.34 0.961,-4.742c1.56,0.78 4.14,1.622 6.24,1.622c1.98,0 3.24,-0.902 3.24,-2.102c0,-1.018 -0.9,-1.92 -4.56,-4.5c-3.061,-2.28 -4.021,-4.38 -4.021,-6.78c0,-4.98 4.261,-9.121 10.501,-9.121l0.06,0Z"
                                                       /><path id="path3034"
                                                                                                      d="M104.47,154.514c2.462,0 4.802,0.9 5.882,2.04c-0.06,1.681 -1.379,4.5 -3.48,3.72c-0.9,-0.3 -1.802,-0.539 -3,-0.539c-1.62,0 -3,0.72 -3,2.219c0,1.14 0.84,1.981 4.86,4.801c2.88,2.1 4.02,3.96 4.02,6.6c0,4.382 -4.142,9.122 -11.342,9.122c-2.94,0 -5.52,-1.14 -6.36,-2.34c-1.08,-1.8 -0.24,-5.34 0.96,-4.742c1.56,0.78 4.14,1.622 6.24,1.622c1.98,0 3.24,-0.902 3.24,-2.102c0,-1.018 -0.9,-1.92 -4.56,-4.5c-3.06,-2.28 -4.02,-4.38 -4.02,-6.78c0,-4.98 4.26,-9.121 10.502,-9.121l0.058,0Z"
                                                                                                      /><path
        id="path3038"
        d="M123.369,176.356c2.941,0 8.281,-5.161 9.781,-15.001c0.06,-0.6 0.122,-0.78 0.242,-1.38c-0.662,-0.24 -1.56,-0.42 -2.462,-0.42c-2.22,0 -4.5,0.66 -6.541,3.42c-2.099,2.94 -3,6.6 -3,9.541c0,2.519 0.72,3.84 1.921,3.84l0.059,0Zm-9.661,-2.7c0,-3.54 1.201,-9.721 5.701,-14.221c3.84,-3.96 8.52,-4.921 12.781,-4.921c2.82,0 6.662,0.9 9.062,1.381c-0.6,2.64 -2.04,12.6 -2.7,18.36c-0.302,2.461 -0.42,5.881 -0.302,7.141c-1.98,0.84 -5.698,1.08 -6.72,1.08c-0.538,0 -0.66,-2.46 -0.48,-4.8c0.06,-0.78 0.18,-1.92 0.24,-2.4c-2.34,3.9 -6.96,7.2 -11.82,7.2c-3.481,0 -5.762,-2.88 -5.762,-8.76l0,-0.06Z"
        /><path id="path3042"
                                                       d="M154.809,162.314c2.761,-4.44 6.36,-7.8 11.401,-7.8c4.26,0 5.64,3.96 4.861,9.6c-0.42,2.642 -1.14,6.422 -1.621,9.902c-0.42,2.941 -0.72,5.58 -0.659,7.381c-1.56,0.78 -6.121,1.08 -7.141,1.08c-0.42,0 -0.481,-3.301 0.06,-6.781c0.479,-2.88 1.5,-8.1 1.98,-11.102c0.301,-1.738 0.24,-3.84 -1.44,-3.84c-2.221,0 -7.5,3.542 -10.141,18.062c-0.181,1.2 -0.66,1.92 -1.321,2.34c-0.899,0.541 -2.82,1.021 -6.719,1.081c0.72,-3.66 1.86,-11.161 2.7,-16.681c0.779,-5.04 1.08,-8.281 0.899,-9.542c1.021,-0.359 6.362,-1.5 6.96,-1.5c0.662,0 0.781,1.861 0.181,6.362c-0.059,0.42 -0.12,1.078 -0.181,1.439l0.181,0Z"
                                                       /><path id="path3046"
                                                                                                      d="M185.29,176.296c2.639,0 7.981,-4.921 9.48,-13.621c0.061,-0.48 0.241,-1.38 0.361,-1.921c-0.781,-0.72 -1.801,-1.2 -3.42,-1.2c-6.062,0 -8.762,7.261 -8.762,12.482c0,2.82 0.961,4.26 2.28,4.26l0.061,0Zm-3.96,6.18c-3.84,0 -6.24,-3.42 -6.24,-9.3c0,-9.721 6.059,-18.662 16.26,-18.662c1.801,0 3.42,0.48 4.44,1.08c0.54,-2.76 1.8,-11.281 1.861,-13.801c1.679,-0.3 5.28,-0.839 6.899,-0.839c0.663,0 0.843,0.659 0.601,2.159c-1.441,9.001 -4.018,26.282 -4.5,30.123c-0.361,3.24 -0.42,6.42 -0.361,8.22c-1.919,0.84 -5.82,1.02 -6.839,1.02c-0.422,0 -0.661,-2.76 -0.541,-5.22c0.061,-0.78 0.18,-1.921 0.18,-2.1c-3,4.92 -7.141,7.32 -11.701,7.32l-0.059,0Z"
                                                                                                      /><path
        id="path3050"
        d="M216.489,163.156c3.181,-7.082 6.96,-8.642 9.421,-8.642c0.781,0 1.98,0.48 2.52,1.08c0.241,1.98 -1.319,5.94 -2.7,7.44c-0.721,-0.36 -1.619,-0.72 -2.64,-0.72c-2.041,0 -6.061,3.182 -8.581,16.862c-0.182,1.141 -0.54,1.621 -1.199,1.921c-1.02,0.6 -5.041,1.08 -6.96,1.14c0.897,-4.921 2.457,-14.941 3.059,-20.823c0.18,-1.5 0.238,-4.26 0.12,-5.34c1.14,-0.54 5.641,-1.56 6.66,-1.56c0.541,0 0.961,3.302 0.118,8.642l0.182,0Z"
        /><path id="path3054"
                                                       d="M237.668,176.356c2.942,0 8.281,-5.161 9.782,-15.001c0.059,-0.6 0.12,-0.78 0.24,-1.38c-0.66,-0.24 -1.56,-0.42 -2.461,-0.42c-2.22,0 -4.5,0.66 -6.541,3.42c-2.099,2.94 -3,6.6 -3,9.541c0,2.519 0.72,3.84 1.921,3.84l0.059,0Zm-9.661,-2.7c0,-3.54 1.201,-9.721 5.701,-14.221c3.84,-3.96 8.52,-4.921 12.781,-4.921c2.82,0 6.66,0.9 9.063,1.381c-0.602,2.64 -2.042,12.6 -2.702,18.36c-0.3,2.461 -0.421,5.881 -0.3,7.141c-1.98,0.84 -5.7,1.08 -6.721,1.08c-0.539,0 -0.659,-2.46 -0.48,-4.8c0.06,-0.78 0.18,-1.92 0.241,-2.4c-2.341,3.9 -6.96,7.2 -11.821,7.2c-3.481,0 -5.762,-2.88 -5.762,-8.76l0,-0.06Z"
                                                       /></g>
    <g id="g4555"><g id="g2848"><clipPath id="_clip1"><rect id="path2862" x="76.459" y="21.023" width="110.363" height="77.72"/></clipPath><g
            clip-path="url(#_clip1)"><path d="M133.179,21.032c-17.835,-0.29 -38.705,6.791 -54.233,13.422c-1.617,4.658 -2.487,9.611 -2.487,14.746c0,27.36 24.705,49.543 55.182,49.543c30.476,0 55.181,-22.183 55.181,-49.543c0,-8.658 -2.48,-16.793 -6.829,-23.876c-12.424,-1.931 -29.511,-4.011 -46.814,-4.292" style="fill:#fff;fill-opacity:0.350006;fill-rule:nonzero;"/></g></g>
        <g id="g2878"><path id="path2886" d="M106.301,44.067c1.212,-2.682 3.046,-3.996 4.824,-6.245c-0.198,-0.532 -0.63,-2.273 -0.63,-2.877c0,-2.695 2.186,-4.883 4.882,-4.883c0.637,0 1.244,0.127 1.8,0.348c8.082,-6.159 18.72,-8.844 29.412,-6.454c0.976,0.22 1.933,0.486 2.874,0.779c-10.567,-1.465 -22.477,2.277 -30.578,8.816c0.248,0.584 0.934,2.253 0.934,2.924c0,2.696 -1.745,3.352 -4.441,3.352c-0.613,0 -1.198,-0.117 -1.739,-0.323c-1.83,2.457 -4.073,7.139 -5.17,10.065c4.48,4.007 8.527,5.46 13.802,7.431c-0.013,-0.251 0.181,-0.484 0.181,-0.74c0.001,-8.129 7.157,-14.735 15.287,-14.735c7.285,0 13.317,5.298 14.495,12.248c3.635,-2.313 7.15,-4.086 9.829,-7.513c-0.625,-0.763 -1.299,-2.921 -1.299,-3.984c0,-2.446 1.985,-4.43 4.431,-4.43c0.346,0 0.679,0.05 1.002,0.125c1.361,-2.795 2.387,-5.757 3.043,-8.812c-12.713,-9.412 -37.309,-8.128 -37.309,-8.128c0,0 -19.572,-1.021 -32.822,5.436c0.883,6.389 3.432,12.463 7.192,17.6" />
            <path id="path2890"
                  d="M167.062,40.401c0.899,0.81 1.389,1.521 1.775,2.213c1.189,2.138 -1.196,4.094 -3.642,4.094c-0.249,0 -0.489,-0.034 -0.728,-0.074c-2.756,4.308 -7.583,9.832 -11.872,12.612c6.576,1.077 12.777,3.711 17.712,7.781c3.594,-6.439 6.35,-15.736 6.35,-23.634c0,-6.011 -2.653,-10.417 -6.66,-13.65c-0.21,3.22 -1.928,7.724 -2.935,10.658"
                  />
            <path id="path2894"
                  d="M113.679,81.182c2.192,-6.051 7.582,-10.74 12.68,-14.865c-0.746,-1.021 -1.865,-3.55 -2.331,-4.748c-6.219,-1.891 -11.721,-5.431 -15.989,-10.117c-0.031,0.136 -0.07,0.269 -0.102,0.405c-0.804,3.601 -0.951,7.21 -0.551,10.73c2.977,0.555 5.231,3.164 5.231,6.302c0,1.862 -1.631,4.559 -2.898,5.733c1.377,2.97 2.315,4.402 3.96,6.56"
                  />
            <path id="path2898"
                  d="M113.294,86.262c-2.614,-2.599 -4.422,-7.783 -6.118,-11.038c-0.317,0.049 -0.642,0.083 -0.975,0.083c-3.545,0 -7.259,-2.975 -6.419,-6.418c0.465,-1.905 1.78,-3.151 3.921,-4.191c-0.487,-3.946 -0.62,-9.619 0.297,-13.721c0.262,-1.174 0.819,-1.724 1.187,-2.842c-3.911,-5.723 -6.439,-13.236 -6.439,-20.69c0,-0.272 0.014,-0.541 0.02,-0.811c-6.61,3.315 -11.566,8.538 -11.566,16.759c0,18.185 10.474,36.024 26.058,43.016c0.011,-0.049 0.021,-0.099 0.033,-0.147"
                  />
            <path id="path2902"
                  d="M151.613,61.122c-2.014,5.727 -7.459,9.841 -13.875,9.841c-3.432,0 -6.581,-1.184 -9.084,-3.151c-5.158,4.017 -9.838,11.075 -12.217,17.197c1.067,1.149 1.811,2.094 3.009,3.113c3.608,0.94 8.578,0 12.485,0c15.712,0 29.628,-6.99 37.607,-19.248c-5.305,-3.673 -11.562,-7.17 -17.925,-7.752"
                  /></g>
        <g id="g2906"><path id="path2914" d="M105.899,46.193c1.211,-2.683 2.73,-5.165 4.506,-7.414c-0.198,-0.531 -0.313,-1.105 -0.313,-1.709c0,-2.695 2.186,-4.882 4.883,-4.882c0.636,0 1.244,0.126 1.8,0.347c8.081,-6.158 18.72,-8.843 29.411,-6.453c0.976,0.22 1.934,0.486 2.874,0.778c-10.566,-1.465 -21.484,1.774 -29.585,8.314c0.247,0.583 0.382,1.225 0.382,1.896c0,2.697 -2.186,4.883 -4.882,4.883c-0.613,0 -1.198,-0.118 -1.739,-0.324c-1.83,2.458 -3.326,5.173 -4.424,8.1c3.848,4.146 8.57,7.425 13.844,9.396c-0.012,-0.251 -0.039,-0.5 -0.039,-0.756c0,-8.129 6.589,-14.719 14.719,-14.719c7.285,0 13.318,5.298 14.495,12.248c3.635,-2.313 6.865,-5.283 9.543,-8.71c-0.625,-0.763 -1.013,-1.724 -1.013,-2.786c0,-2.447 1.985,-4.43 4.431,-4.43c0.347,0 0.679,0.05 1.003,0.125c1.36,-2.795 2.386,-5.758 3.042,-8.813c-12.712,-9.411 -37.308,-8.127 -37.308,-8.127c0,0 -19.573,-1.022 -32.823,5.436c0.884,6.389 3.433,12.462 7.193,17.6" />
            <path id="path2918"
                  d="M167.749,41.126c0.898,0.81 1.475,1.971 1.475,3.276c0,2.446 -1.985,4.431 -4.432,4.431c-0.248,0 -0.488,-0.034 -0.727,-0.074c-2.756,4.308 -6.409,7.98 -10.699,10.76c6.34,0.992 12.308,3.682 17.241,7.752c3.594,-6.439 5.648,-13.855 5.648,-21.753c0,-6.011 -2.654,-10.417 -6.66,-13.65c-0.21,3.22 -0.84,6.324 -1.846,9.258"
                  />
            <path id="path2922"
                  d="M114.355,82.636c2.192,-6.052 5.999,-11.482 11.098,-15.605c-0.746,-1.023 -1.361,-2.139 -1.828,-3.337c-6.22,-1.891 -11.721,-5.431 -15.988,-10.117c-0.032,0.136 -0.072,0.269 -0.103,0.405c-0.805,3.601 -0.952,7.21 -0.551,10.73c2.976,0.555 5.231,3.164 5.231,6.302c0,1.862 -0.799,3.535 -2.065,4.709c1.149,2.435 2.561,4.755 4.206,6.913"
                  />
            <path id="path2926"
                  d="M113.276,86.188c-2.613,-2.599 -4.807,-5.584 -6.502,-8.838c-0.319,0.049 -0.644,0.082 -0.975,0.082c-3.545,0 -6.419,-2.874 -6.419,-6.418c0,-2.54 1.48,-4.73 3.621,-5.77c-0.486,-3.945 -0.321,-8.04 0.597,-12.142c0.262,-1.173 0.582,-2.318 0.951,-3.437c-3.911,-5.722 -6.203,-12.641 -6.203,-20.095c0,-0.272 0.013,-0.541 0.019,-0.81c-6.61,3.314 -11.566,8.538 -11.566,16.758c0,18.186 10.86,33.825 26.444,40.817c0.011,-0.048 0.021,-0.098 0.033,-0.147"
                  />
            <path id="path2930"
                  d="M151.21,63.247c-2.013,5.728 -7.458,9.841 -13.875,9.841c-3.432,0 -6.581,-1.183 -9.083,-3.151c-5.159,4.018 -9.053,9.494 -11.43,15.618c1.066,1.148 2.206,2.231 3.403,3.248c3.61,0.94 7.397,1.444 11.303,1.444c15.712,0 29.526,-8.112 37.505,-20.369c-5.305,-3.675 -11.46,-6.048 -17.823,-6.631"
                  /></g>
        <g id="g2940"><clipPath id="_clip2"><rect id="path2954" x="107.952" y="30.463" width="57.374" height="57.324"/></clipPath>
            <g clip-path="url(#_clip2)"><path d="M151.727,59.452l13.598,-3.244l-13.65,-0.696l11.109,-8.49l-12.605,4.519l8.566,-11.871l-11.831,7.863l4.136,-13.896l-8.125,11.454l-0.185,-14.474l-5.346,12.893l-4.457,-13.047l0.241,15.369l-7.704,-13.776l4.169,14.627l-12.496,-9.087l9.788,12.3l-15.513,-5.705l12.243,9.058l-15.7,0.483l16.053,4.142l-16.066,3.474l15.858,1.15l-13.373,8.564l13.771,-4.992l-9.555,12.101l12.074,-9.738l-4.348,16.239l9.321,-13.215l-1.306,15.608l5.291,-14.149l4.504,14.871l1.095,-14.916l6.685,12.726l-3.95,-14.556l12.241,9.482l-7.902,-12.09l13.43,5.233l-10.269,-10.092l13.77,1.083l-13.562,-5.205Z" /></g></g>
        <g id="g2958"><g id="g2964"><clipPath id="_clip3"><rect id="path2978" x="6.953" y="8.201" width="265.502" height="77.272"/></clipPath><g
                clip-path="url(#_clip3)"><path d="M6.953,85.473c42.175,-42.174 75.859,-55.194 106.429,-61.137c4.045,-0.787 4.81,-9.625 4.81,-9.625c0,0 0.566,6.51 3.397,7.358c2.83,0.85 6.509,-10.19 6.509,-10.19c0,0 -3.396,9.908 0,10.474c3.398,0.566 9.624,-9.624 9.624,-9.624c0,0 -2.546,8.774 -0.848,9.34c1.697,0.567 10.188,-12.736 10.188,-12.736c0,0 -5.095,8.774 -0.283,9.624c4.814,0.849 11.834,-5.989 11.834,-5.989c0,0 -5.52,6.256 -3.06,7.12c10.474,3.681 18.949,-9.931 18.949,-9.931c0,0 -1.964,5.969 -7.059,12.479c11.038,2.83 19.236,-13.799 19.236,-13.799l-8.198,16.629c4.246,2.266 21.231,-17.265 21.231,-17.265c0,0 -8.775,15.285 -13.87,18.397c2.83,2.265 13.02,-6.792 13.02,-6.792c0,0 -8.209,10.188 -5.095,10.755c4.529,3.68 21.227,-18.964 21.227,-18.964c0,0 -6.508,13.302 -16.132,23.776c8.044,4.024 28.022,-21.795 28.022,-21.795c0,0 -0.566,8.209 -15.002,21.229c10.756,-1.415 24.626,-21.795 24.626,-21.795c0,0 -5.095,15.285 -17.267,26.04c10.561,-1.099 27.455,-27.173 27.455,-27.173c0,0 -6.509,18.115 -19.812,28.589c14.719,3.255 35.948,-18.681 35.948,-18.681c0,0 -8.35,15.569 -19.249,21.936c12.173,4.67 28.873,-14.577 28.873,-14.577c0,0 -16.7,25.758 -43.307,24.626c-8.73,-0.371 -35.136,-26.485 -91.71,-24.343c-74.725,2.832 -90.575,34.533 -130.486,56.044" style="fill:#373535;fill-opacity:0.350006;fill-rule:nonzero;"/></g></g>
            <path id="path2982"
                  d="M8.682,82.27c42.175,-42.174 75.857,-55.193 106.427,-61.138c4.046,-0.786 4.811,-9.623 4.811,-9.623c0,0 0.565,6.511 3.398,7.358c2.83,0.849 6.509,-10.188 6.509,-10.188c0,0 -3.397,9.907 0,10.472c3.397,0.565 9.623,-9.623 9.623,-9.623c0,0 -2.546,8.773 -0.85,9.34c1.699,0.566 10.19,-12.738 10.19,-12.738c0,0 -5.095,8.775 -0.282,9.624c4.811,0.85 11.834,-5.988 11.834,-5.988c0,0 -5.52,6.257 -3.06,7.12c10.473,3.68 18.946,-9.931 18.946,-9.931c0,0 -1.964,5.969 -7.056,12.479c11.037,2.831 19.236,-13.8 19.236,-13.8l-8.199,16.631c4.246,2.264 21.229,-17.265 21.229,-17.265c0,0 -8.773,15.283 -13.868,18.396c2.83,2.265 13.02,-6.792 13.02,-6.792c0,0 -8.208,10.19 -5.095,10.755c4.529,3.681 21.228,-18.964 21.228,-18.964c0,0 -6.511,13.304 -16.133,23.776c8.044,4.025 28.023,-21.795 28.023,-21.795c0,0 -0.566,8.21 -15.003,21.23c10.757,-1.416 24.627,-21.796 24.627,-21.796c0,0 -5.095,15.285 -17.268,26.041c10.561,-1.099 27.455,-27.172 27.455,-27.172c0,0 -6.509,18.115 -19.811,28.587c14.719,3.255 35.947,-18.68 35.947,-18.68c0,0 -8.35,15.566 -19.248,21.935c12.172,4.67 28.872,-14.577 28.872,-14.577c0,0 -16.7,25.758 -43.309,24.626c-8.727,-0.373 -35.133,-26.486 -91.708,-24.343c-74.724,2.83 -90.575,34.532 -130.485,56.043"
                  /></g>
        <g id="g2986"><g id="g2992"><path id="path3006" d="M5.848,90.086c22.29,11.181 42.672,-1.698 68.358,5.541c19.529,5.505 43.306,12.291 75.572,7.62c32.268,-4.669 59.867,-18.68 73.03,-43.731c4.104,-11.179 20.803,2.548 20.803,2.548c0,0 -12.17,-5.095 -11.886,-2.688c0.282,2.405 18.256,10.755 18.256,10.755c0,0 -16.276,-5.095 -15.285,-1.274c0.991,3.821 20.377,19.106 20.377,19.106c0,0 -21.935,-16.7 -23.773,-14.436c-1.842,2.265 9.34,11.465 9.34,11.465c0,0 -18.54,-11.465 -25.052,-8.084c-4.682,2.429 19.249,18.133 19.249,18.133c0,0 -15.569,-11.89 -19.249,-8.777c-3.678,3.115 17.55,28.589 17.55,28.589c0,0 -24.061,-26.041 -26.465,-24.767c-2.407,1.273 6.65,13.728 6.65,13.728c0,0 -11.887,-13.021 -15.141,-10.756c-3.255,2.265 16.983,36.089 16.983,36.089c0,0 -21.937,-34.673 -30.994,-28.873c14.224,31.208 8.916,35.667 8.916,35.667c0,0 -1.815,-31.838 -19.531,-30.995c-8.916,0.425 4.245,23.776 4.245,23.776c0,0 -12.114,-21.328 -20.181,-20.903c14.868,28.139 9.568,39.584 9.568,39.584c0,0 2.459,-24.032 -17.707,-37.406c7.641,6.791 -4.795,37.406 -4.795,37.406c0,0 10.94,-45.114 -8.069,-36.512c-3.004,1.356 -0.212,22.502 -0.212,22.502c0,0 -3.822,-24.202 -9.552,-22.927c-3.341,0.741 -21.23,33.541 -21.23,33.541c0,0 14.649,-35.453 10.192,-33.966c-3.248,1.083 -9.342,15.71 -9.342,15.71c0,0 2.972,-14.437 0,-15.285c-2.971,-0.85 -19.531,15.285 -19.531,15.285c0,0 12.314,-14.437 10.19,-17.409c-3.217,-4.504 -6.989,-4.715 -11.464,-2.971c-6.511,2.537 -15.283,14.435 -15.283,14.435c0,0 8.745,-12.047 7.216,-16.559c-2.454,-7.25 -27.596,14.011 -27.596,14.011c0,0 14.86,-14.011 11.463,-16.984c-3.396,-2.971 -21.838,-2.052 -27.597,-2.068c-16.983,-0.053 -22.868,-4.037 -28.023,-8.12" style="fill:#373535;fill-opacity:0.350006;fill-rule:nonzero;"/></g>
            <path id="path3010"
                  d="M5,87.538c22.29,11.181 42.67,-1.698 68.356,5.542c19.529,5.503 43.308,12.29 75.575,7.619c32.268,-4.67 59.864,-18.681 73.028,-43.73c4.103,-11.18 20.802,2.546 20.802,2.546c0,0 -12.17,-5.093 -11.886,-2.687c0.282,2.405 18.256,10.755 18.256,10.755c0,0 -16.276,-5.094 -15.285,-1.273c0.991,3.82 20.38,19.105 20.38,19.105c0,0 -21.937,-16.701 -23.776,-14.435c-1.839,2.264 9.341,11.463 9.341,11.463c0,0 -18.541,-11.463 -25.051,-8.084c-4.684,2.43 19.247,18.133 19.247,18.133c0,0 -15.568,-11.889 -19.247,-8.775c-3.68,3.115 17.551,28.588 17.551,28.588c0,0 -24.062,-26.041 -26.467,-24.767c-2.405,1.275 6.652,13.727 6.652,13.727c0,0 -11.89,-13.02 -15.144,-10.755c-3.255,2.264 16.983,36.089 16.983,36.089c0,0 -21.936,-34.674 -30.994,-28.871c14.224,31.206 8.917,35.665 8.917,35.665c0,0 -1.815,-31.838 -19.532,-30.994c-8.916,0.425 4.245,23.775 4.245,23.775c0,0 -12.113,-21.329 -20.18,-20.904c14.87,28.14 9.568,39.585 9.568,39.585c0,0 2.459,-24.033 -17.708,-37.407c7.642,6.792 -4.795,37.407 -4.795,37.407c0,0 10.943,-45.113 -8.066,-36.512c-3.004,1.357 -0.213,22.502 -0.213,22.502c0,0 -3.823,-24.201 -9.552,-22.927c-3.343,0.741 -21.231,33.541 -21.231,33.541c0,0 14.648,-35.452 10.191,-33.965c-3.248,1.081 -9.341,15.708 -9.341,15.708c0,0 2.972,-14.435 0,-15.284c-2.972,-0.849 -19.53,15.284 -19.53,15.284c0,0 12.313,-14.435 10.188,-17.408c-3.217,-4.504 -6.988,-4.714 -11.462,-2.97c-6.513,2.536 -15.285,14.434 -15.285,14.434c0,0 8.745,-12.048 7.217,-16.559c-2.455,-7.249 -27.596,14.011 -27.596,14.011c0,0 14.86,-14.011 11.463,-16.982c-3.396,-2.973 -21.839,-2.053 -27.598,-2.07c-16.982,-0.054 -22.866,-4.036 -28.021,-8.12"
                  /></g></g></svg>