<?xml version="1.0" encoding="UTF-8" standalone="no"?><!DOCTYPE svg PUBLIC "-//W3C//DTD SVG 1.1//EN" "http://www.w3.org/Graphics/SVG/1.1/DTD/svg11.dtd"><svg width="100%" height="100%" viewBox="0 0 497 103" version="1.1" xmlns="http://www.w3.org/2000/svg" xmlns:xlink="http://www.w3.org/1999/xlink" xml:space="preserve" xmlns:serif="http://www.serif.com/" style="fill-rule:evenodd;clip-rule:evenodd;"><g id="g3588"><g id="g19"><path id="path21" d="M24.676,54.739c-1.964,-0.462 -6.005,-1.732 -10.278,-4.388c4.619,-2.656 8.776,-3.118 10.278,-3.233c0.231,-1.732 0.577,-3.349 1.039,-4.966c-1.501,-1.155 -4.388,-3.464 -7.044,-6.929c4.272,-0.346 7.968,0.231 9.815,0.578c0.924,-1.617 2.079,-3.118 3.465,-4.619c-0.809,-1.386 -2.31,-4.158 -3.234,-7.968c3.465,1.501 6.005,3.349 7.276,4.388c1.732,-1.27 3.579,-2.31 5.427,-3.234c0,-1.616 0,-4.503 0.693,-7.968c2.425,2.541 3.926,4.966 4.504,6.236c2.309,-0.462 4.734,-0.693 7.275,-0.577c0.462,-1.27 1.385,-3.464 3.002,-6.12c1.155,3.002 1.617,5.427 1.848,6.697c2.54,0.578 4.965,1.386 7.275,2.541c3.695,-3.118 7.16,-4.504 11.201,-5.543c0,-5.081 -0.692,-10.047 -3.348,-15.012c-2.656,-1.271 -5.543,-2.194 -8.43,-2.887c-3.003,1.616 -5.428,3.464 -7.507,5.427c-1.501,-2.309 -3.464,-4.734 -5.889,-6.929c-1.155,0 -3.349,-0.115 -7.622,0.578c-2.078,2.656 -3.579,5.312 -4.734,7.968c-2.541,-1.617 -5.659,-3.003 -9.238,-3.926c-2.079,0.923 -4.042,1.963 -6.005,3.117c-0.693,3.349 -0.924,6.467 -0.809,9.354c-3.002,-0.577 -6.467,-0.808 -10.162,-0.346c-1.27,1.386 -2.54,2.887 -3.695,4.503c0.231,4.158 1.27,7.738 2.771,10.855c-3.464,0.809 -7.044,2.31 -10.393,4.62c-0.462,1.501 -0.808,3.118 -1.155,4.619c2.079,3.58 4.735,6.467 7.391,8.661c-2.656,2.194 -5.312,5.196 -7.737,9.238c0.231,1.732 0.577,3.349 1.039,4.966l0.116,0c2.771,-5.774 6.12,-9.585 9.354,-12.126c6.582,4.504 13.049,5.774 13.973,5.89c-0.116,-1.04 -0.347,-2.079 -0.462,-3.465Zm43.882,-49.078c2.309,3.464 3.117,7.737 3.348,10.162c-2.078,0.808 -5.312,2.31 -8.43,4.85c-0.461,-2.194 -1.27,-5.427 -3.002,-9.123c2.079,-2.078 4.735,-4.157 8.084,-5.889Zm-20.209,-2.31c2.771,2.31 4.85,5.081 6.351,7.622c-2.425,3.118 -3.926,6.12 -4.735,8.199c-1.154,-2.079 -3.233,-4.85 -6.351,-7.622c1.039,-2.656 2.541,-5.543 4.735,-8.199Zm-19.747,5.659c4.042,0.808 7.16,2.309 9.816,4.157c-1.155,4.042 -1.386,7.622 -1.386,9.931c-2.079,-1.501 -5.081,-3.349 -9.008,-4.619c-0.346,-2.771 -0.23,-6.005 0.578,-9.469Zm-4.273,12.702c0.809,4.504 2.31,7.968 3.465,10.163c-2.656,-0.462 -6.698,-0.809 -11.202,-0.231c-1.501,-2.887 -2.656,-6.467 -2.887,-10.509c3.926,-0.462 7.506,-0.115 10.624,0.577Zm-20.209,18.477c3.349,-2.425 7.045,-3.695 10.393,-4.388c2.426,3.811 5.428,6.582 7.507,8.314c-2.656,0.462 -6.583,1.502 -10.74,4.158c-2.54,-1.964 -5.081,-4.62 -7.16,-8.084Z" style="fill:#fff;stroke:#2db24a;stroke-width:0.25px;"/><g id="g23"><path id="path25" d="M46.732,22.636c-0.693,-1.27 -2.079,-3.811 -4.504,-6.236c-0.808,3.465 -0.808,6.467 -0.693,7.968c-0.115,0 2.195,-1.154 5.197,-1.732Z" style="fill:#43b02a;stroke:#43b02a;stroke-width:0.25px;"/><path id="path35" d="M35.993,27.486c-1.271,-1.039 -3.696,-2.887 -7.276,-4.388c0.924,3.811 2.425,6.582 3.234,7.968c0,0.231 1.616,-1.732 4.042,-3.58Z" style="fill:#43b02a;stroke:#43b02a;stroke-width:0.25px;"/><path id="path37" d="M49.965,19.172c0.809,-2.079 2.31,-5.081 4.735,-8.199c-1.501,-2.656 -3.58,-5.312 -6.351,-7.622c-2.194,2.772 -3.696,5.543 -4.735,8.315c3.118,2.656 5.081,5.427 6.351,7.506Z" style="fill:#43b02a;stroke:#43b02a;stroke-width:0.25px;"/><path id="path39" d="M28.602,35.801c-1.848,-0.347 -5.543,-0.924 -9.816,-0.578c2.541,3.58 5.428,5.89 7.044,6.929c-0.115,0.116 0.809,-3.002 2.772,-6.351Z" style="fill:#43b02a;stroke:#43b02a;stroke-width:0.25px;"/><path id="path43" d="M11.396,48.273c4.157,-2.656 8.083,-3.811 10.739,-4.158c-2.079,-1.732 -5.081,-4.503 -7.506,-8.314c-3.464,0.693 -7.044,2.078 -10.393,4.388c1.963,3.464 4.504,6.12 7.16,8.084Z" style="fill:#43b02a;stroke:#43b02a;stroke-width:0.25px;"/><path id="path45" d="M24.676,47.233c-1.617,0.116 -5.659,0.462 -10.278,3.234c4.273,2.656 8.314,3.926 10.278,4.388c-0.347,-2.541 -0.347,-5.197 0,-7.622Z" style="fill:#43b02a;stroke:#43b02a;stroke-width:0.25px;"/><path id="path47" d="M38.418,13.167c-2.541,-1.732 -5.774,-3.233 -9.816,-4.157c-0.808,3.464 -0.924,6.698 -0.693,9.469c3.926,1.27 6.929,3.118 9.007,4.619c0,-2.309 0.347,-5.889 1.502,-9.931Z" style="fill:#43b02a;stroke:#43b02a;stroke-width:0.25px;"/><path id="path49" d="M73.985,4.737c0,0 3.233,9.931 3.349,15.012c-3.926,0.924 -7.391,2.31 -11.202,5.543c2.079,1.04 3.927,2.31 5.659,3.811c1.848,1.617 3.58,2.31 6.005,1.155c1.386,-0.924 9.123,-8.892 9.931,-9.931c1.848,-1.963 1.386,-5.197 -0.577,-6.698c-4.851,-4.504 -13.165,-8.892 -13.165,-8.892Z" style="fill:#43b02a;stroke:#43b02a;stroke-width:0.25px;"/><path id="path51" d="M2.273,36.956c3.464,-2.31 6.928,-3.811 10.393,-4.62c-1.501,-3.117 -2.541,-6.697 -2.772,-10.855c-3.349,4.735 -6.005,10.047 -7.621,15.475Z" style="fill:#43b02a;stroke:#43b02a;stroke-width:0.25px;"/><path id="path55" d="M27.678,31.875c-1.155,-2.195 -2.656,-5.774 -3.464,-10.163c-3.118,-0.692 -6.583,-1.039 -10.624,-0.461c0.231,4.041 1.385,7.506 2.887,10.508c4.619,-0.693 8.545,-0.346 11.201,0.116Z" style="fill:#43b02a;stroke:#43b02a;stroke-width:0.25px;"/><path id="path59" d="M13.59,17.093c3.695,-0.462 7.159,-0.231 10.162,0.347c-0.116,-2.887 0.115,-6.005 0.808,-9.354c1.963,-1.155 3.926,-2.194 6.005,-3.118c3.695,0.924 6.698,2.31 9.238,3.926c1.155,-2.656 2.656,-5.312 4.735,-7.968c-10.509,1.617 -20.44,6.236 -28.061,13.396c-2.425,2.194 -4.62,4.734 -6.583,7.39c1.155,-1.732 2.425,-3.233 3.696,-4.619Z" style="fill:#43b02a;stroke:#43b02a;stroke-width:0.25px;"/><path id="path67" d="M1.695,39.265c0.231,-0.808 0.347,-1.501 0.578,-2.309c-0.231,0.808 -0.462,1.616 -0.578,2.309Z" style="fill:#43b02a;stroke:#43b02a;stroke-width:0.25px;"/><path id="path71" d="M8.624,50.351c-2.656,-2.194 -5.312,-5.081 -7.391,-8.661c-1.154,5.89 -1.154,12.126 -0.231,17.899c2.195,-4.041 4.851,-6.928 7.622,-9.238Z" style="fill:#43b02a;stroke:#43b02a;stroke-width:0.25px;"/><path id="path75" d="M86.226,80.145c-7.275,-6.929 -8.777,-11.433 -14.897,-6.698c-16.744,13.164 -40.879,5.312 -45.961,-15.128c-0.923,-0.115 -7.39,-1.386 -13.972,-5.889c-3.234,2.54 -6.583,6.467 -9.354,12.125l-0.116,0c10.509,39.725 61.666,48.963 85.339,24.135c3.926,-4.157 0.346,-7.044 -1.039,-8.545Z" style="fill:#43b02a;stroke:#43b02a;stroke-width:0.25px;"/><path id="path79" d="M68.558,5.661c-3.349,1.617 -6.005,3.695 -8.084,5.889c1.732,3.696 2.541,7.045 3.002,9.123c3.234,-2.54 6.467,-4.042 8.43,-4.85c-0.231,-2.31 -1.039,-6.582 -3.348,-10.162Z" style="fill:#43b02a;stroke:#43b02a;stroke-width:0.25px;"/><path id="path83" d="M57.01,15.939c-1.617,2.54 -2.541,4.85 -3.003,6.12c1.617,0.115 3.234,0.346 4.85,0.693c-0.115,-1.386 -0.693,-3.811 -1.847,-6.813Z" style="fill:#43b02a;stroke:#43b02a;stroke-width:0.25px;"/><path id="path85" d="M69.828,3.12c-0.578,-0.231 -1.27,-0.462 -1.848,-0.577c0.693,0.115 1.27,0.346 1.848,0.577Z" style="fill:#43b02a;stroke:#43b02a;stroke-width:0.25px;"/><path id="path87" d="M58.049,7.162c2.079,-1.963 4.504,-3.811 7.506,-5.427c-4.273,-1.04 -8.661,-1.502 -13.395,-1.502c2.425,2.195 4.388,4.62 5.889,6.929Z" style="fill:#43b02a;stroke:#43b02a;stroke-width:0.25px;"/></g><g id="g91"><g id="g99-Clipped"><g id="g99"><g id="rect107-Clipped"><rect id="rect107" x="1.811" y="54.277" width="88.341" height="49.656" style="fill:#fff;stroke:#2db24a;stroke-width:0.25px;"/></g><rect id="SVGID_4_" x="-0.383" y="-1.268" width="90.535" height="103.931" style="fill:none;stroke:#2db24a;stroke-width:0.25px;"/></g></g><path id="SVGID_2_" d="M20.518,63.631c3.696,9.816 16.629,22.865 32.565,22.865c8.777,0 16.745,-3.118 22.981,-8.43c0.462,-0.231 4.734,4.619 6.466,6.467c0.347,0.462 0.347,0.577 0.347,0.577c-21.017,18.361 -56.7,15.705 -73.56,-16.051c1.386,-4.619 3.349,-7.391 3.349,-7.391c4.503,1.848 7.852,1.963 7.852,1.963Z" style="fill:none;stroke:#2db24a;stroke-width:0.25px;"/></g></g><g id="g119"><path id="path121" d="M146.275,0.118c28.407,0 51.041,22.865 51.041,51.157c0,28.292 -22.749,50.926 -51.041,50.926c-28.293,0 -50.926,-22.518 -50.926,-50.926c0,-28.408 22.518,-51.157 50.926,-51.157Zm0,83.722c17.899,0 32.68,-14.666 32.68,-32.45c0,-17.783 -14.781,-32.795 -32.68,-32.795c-17.9,0 -32.45,14.896 -32.45,32.795c0,17.9 14.55,32.45 32.45,32.45Z" style="fill:#43b02a;"/><path id="path123" d="M212.675,2.658c0,-1.385 1.27,-2.54 2.656,-2.54l3.58,0l59.009,62.705l0.116,0l0,-58.548c0,-1.386 1.155,-2.656 2.656,-2.656l13.049,0c1.386,0 2.656,1.27 2.656,2.656l0,95.501c0,1.386 -1.27,2.541 -2.656,2.541l-3.349,0l-59.356,-65.13l-0.115,0l0,60.972c0,1.386 -1.155,2.656 -2.656,2.656l-12.934,0c-1.386,0 -2.656,-1.27 -2.656,-2.656l0,-95.501Z" style="fill:#43b02a;"/><path id="path125" d="M318.453,4.275c0,-1.386 1.155,-2.656 2.541,-2.656l33.604,0c27.369,0 49.772,22.288 49.772,49.541c0,27.483 -22.403,49.771 -49.772,49.771l-33.604,0c-1.386,0 -2.541,-1.27 -2.541,-2.656l0,-94Zm34.529,79.219c18.476,0 31.872,-13.858 31.872,-32.45c0,-18.477 -13.511,-32.334 -31.872,-32.334l-16.167,0l0,64.784l16.167,0Z" style="fill:#43b02a;"/><path id="path127" d="M402.637,97.12l44.113,-95.501c0.462,-0.808 1.155,-1.617 2.425,-1.617l1.386,0c1.386,0 1.963,0.693 2.425,1.617l43.651,95.501c0.808,1.848 -0.231,3.695 -2.425,3.695l-12.356,0c-2.079,0 -3.118,-0.808 -4.157,-2.887l-6.929,-15.358l-42.381,0l-6.929,15.358c-0.577,1.386 -1.847,2.887 -4.157,2.887l-12.356,0c-1.963,0 -3.118,-1.847 -2.31,-3.695Zm61.32,-30.14l-14.204,-31.179l-0.462,0l-13.858,31.179l28.524,0Z" style="fill:#43b02a;"/></g></g></svg>