<?xml version="1.0" encoding="UTF-8" standalone="no"?><!DOCTYPE svg PUBLIC "-//W3C//DTD SVG 1.1//EN"
        "http://www.w3.org/Graphics/SVG/1.1/DTD/svg11.dtd">
<svg xmlns:xlink="http://www.w3.org/1999/xlink" xmlns:serif="http://www.serif.com/" width="100%" height="100%" viewBox="0 0 44 51"
     version="1.1" xmlns="http://www.w3.org/2000/svg" xml:space="preserve"
     style="fill-rule:evenodd;clip-rule:evenodd;stroke-linejoin:round;stroke-miterlimit:1.41421;"><g id="Group"><g id="g"><path id="path0_fill" d="M2.285,26.835c0,1.558 -0.125,2.066 -0.445,2.44c-0.357,0.321 -0.82,0.499 -1.3,0.498l0.125,0.891c0.744,0.01 1.466,-0.253 2.03,-0.739c0.303,-0.37 0.528,-0.797 0.663,-1.256c0.135,-0.459 0.175,-0.94 0.12,-1.415l0,-5.894l-1.193,0l0,5.475Z" style="fill:#4e4e4e;fill-rule:nonzero;"/><path
        id="path1_fill"
        d="M11.182,26.133c0,0.668 0,1.264 0.053,1.781l-1.059,0l-0.071,-1.06c-0.222,0.375 -0.539,0.685 -0.919,0.897c-0.38,0.213 -0.809,0.321 -1.245,0.314c-1.032,0 -2.261,-0.561 -2.261,-2.849l0,-3.801l1.193,0l0,3.561c0,1.237 0.383,2.065 1.46,2.065c0.222,0.003 0.442,-0.039 0.647,-0.123c0.205,-0.084 0.391,-0.208 0.548,-0.364c0.157,-0.157 0.281,-0.344 0.365,-0.549c0.083,-0.205 0.125,-0.425 0.123,-0.646l0,-3.989l1.193,0l0,4.727l-0.027,0.036Z"
        /><path id="path2_fill"
                                                       d="M13.443,23.533c0,-0.828 0,-1.505 -0.053,-2.119l1.068,0l0.054,1.113c0.238,-0.402 0.58,-0.732 0.991,-0.955c0.411,-0.223 0.875,-0.33 1.341,-0.31c1.585,0 2.778,1.327 2.778,3.303c0,2.333 -1.433,3.49 -2.982,3.49c-0.397,0.018 -0.791,-0.067 -1.145,-0.246c-0.354,-0.18 -0.656,-0.447 -0.876,-0.777l0,3.561l-1.176,0l0,-7.034l0,-0.026Zm1.176,1.736c0.003,0.161 0.021,0.322 0.053,0.48c0.101,0.396 0.331,0.746 0.653,0.996c0.323,0.25 0.72,0.385 1.128,0.384c1.255,0 1.994,-1.023 1.994,-2.51c0,-1.3 -0.695,-2.413 -1.95,-2.413c-0.497,0.041 -0.962,0.261 -1.307,0.62c-0.346,0.359 -0.549,0.832 -0.571,1.33l0,1.113Z"
                                                      /><path id="path3_fill"
                                                                                                      d="M21.748,21.408l1.433,3.837c0.151,0.427 0.312,0.944 0.418,1.327c0.125,-0.392 0.259,-0.891 0.419,-1.354l1.3,-3.81l1.255,0l-1.781,4.629c-0.89,2.226 -1.433,3.375 -2.252,4.069c-0.413,0.377 -0.916,0.641 -1.46,0.766l-0.294,-0.997c0.381,-0.126 0.734,-0.322 1.042,-0.579c0.434,-0.354 0.779,-0.806 1.006,-1.318c0.048,-0.089 0.082,-0.185 0.098,-0.285c-0.01,-0.107 -0.037,-0.212 -0.08,-0.311l-2.422,-5.992l1.3,0l0.018,0.018Z"
                                                                                                      /><path
        id="path4_fill"
        d="M29.74,19.54l0,1.87l1.709,0l0,0.89l-1.709,0l0,3.508c0,0.801 0.232,1.264 0.89,1.264c0.234,0.004 0.468,-0.023 0.695,-0.08l0.053,0.89c-0.34,0.118 -0.699,0.172 -1.059,0.16c-0.239,0.015 -0.477,-0.022 -0.7,-0.108c-0.223,-0.086 -0.425,-0.219 -0.591,-0.39c-0.363,-0.485 -0.528,-1.09 -0.463,-1.692l0,-3.561l-1.015,0l0,-0.89l1.033,0l0,-1.585l1.157,-0.276Z"
        /><path id="path5_fill"
                                                       d="M33.647,24.869c-0.024,0.302 0.018,0.606 0.122,0.89c0.105,0.284 0.27,0.542 0.484,0.756c0.214,0.215 0.473,0.38 0.757,0.484c0.284,0.105 0.588,0.147 0.89,0.122c0.61,0.014 1.217,-0.101 1.78,-0.338l0.205,0.89c-0.691,0.285 -1.434,0.422 -2.181,0.401c-0.436,0.03 -0.873,-0.035 -1.281,-0.19c-0.408,-0.155 -0.778,-0.396 -1.084,-0.707c-0.306,-0.311 -0.541,-0.685 -0.689,-1.096c-0.149,-0.41 -0.206,-0.848 -0.169,-1.283c0,-1.959 1.166,-3.508 3.071,-3.508c2.137,0 2.671,1.87 2.671,3.063c0.012,0.183 0.012,0.368 0,0.552l-4.603,0l0.027,-0.036Zm3.49,-0.89c0.034,-0.238 0.017,-0.481 -0.05,-0.712c-0.067,-0.231 -0.183,-0.444 -0.34,-0.627c-0.157,-0.182 -0.351,-0.328 -0.57,-0.429c-0.218,-0.101 -0.455,-0.154 -0.696,-0.155c-0.489,0.035 -0.947,0.252 -1.285,0.608c-0.338,0.355 -0.53,0.824 -0.54,1.315l3.481,0Z"
                                                       /><path id="path6_fill"
                                                                                                      d="M40.033,23.432c0,-0.765 0,-1.424 -0.053,-2.03l1.068,0l0,1.274l0.054,0c0.112,-0.393 0.344,-0.742 0.663,-0.997c0.319,-0.255 0.709,-0.405 1.117,-0.428c0.113,-0.015 0.226,-0.015 0.339,0l0,1.113c-0.136,-0.016 -0.274,-0.016 -0.41,0c-0.404,0.016 -0.789,0.178 -1.082,0.456c-0.293,0.279 -0.475,0.655 -0.511,1.057c-0.034,0.183 -0.052,0.367 -0.054,0.552l0,3.464l-1.175,0l0,-4.452l0.044,-0.009Z"
                                                                                                      /></g><g
        id="g1" serif:id="g"><path id="path7_fill" d="M39.511,3.526c0.036,0.598 -0.106,1.193 -0.409,1.71c-0.303,0.517 -0.753,0.932 -1.293,1.192c-0.54,0.261 -1.145,0.354 -1.738,0.27c-0.593,-0.085 -1.148,-0.345 -1.593,-0.746c-0.445,-0.401 -0.761,-0.925 -0.907,-1.507c-0.146,-0.581 -0.116,-1.192 0.087,-1.756c0.203,-0.564 0.569,-1.055 1.051,-1.41c0.483,-0.355 1.06,-0.559 1.659,-0.584c0.392,-0.022 0.785,0.034 1.156,0.165c0.371,0.131 0.712,0.333 1.004,0.597c0.292,0.263 0.529,0.581 0.698,0.936c0.168,0.355 0.265,0.74 0.285,1.133Z"/>
    <path id="path8_fill"
          d="M21.906,38.392c-8.012,0 -15.055,-2.875 -18.696,-7.122c1.413,3.82 3.962,7.116 7.305,9.444c3.342,2.328 7.318,3.576 11.391,3.576c4.074,0 8.049,-1.248 11.392,-3.576c3.342,-2.328 5.892,-5.624 7.305,-9.444c-3.633,4.247 -10.648,7.122 -18.697,7.122Z"
         />
    <path id="path9_fill"
          d="M21.906,10.777c8.013,0 15.055,2.876 18.697,7.123c-1.413,-3.821 -3.963,-7.117 -7.305,-9.444c-3.343,-2.328 -7.318,-3.576 -11.392,-3.576c-4.073,0 -8.049,1.248 -11.391,3.576c-3.343,2.327 -5.892,5.623 -7.305,9.444c3.641,-4.256 10.648,-7.123 18.696,-7.123Z"
         />
    <path id="path10_fill"
          d="M10.876,46.657c0.047,0.753 -0.132,1.503 -0.513,2.155c-0.38,0.652 -0.947,1.175 -1.626,1.504c-0.68,0.328 -1.442,0.447 -2.189,0.341c-0.748,-0.106 -1.446,-0.432 -2.008,-0.936c-0.561,-0.505 -0.96,-1.165 -1.144,-1.897c-0.185,-0.732 -0.148,-1.502 0.107,-2.213c0.254,-0.711 0.715,-1.329 1.322,-1.777c0.608,-0.448 1.335,-0.705 2.089,-0.739c0.494,-0.026 0.988,0.045 1.455,0.21c0.466,0.164 0.896,0.419 1.264,0.75c0.368,0.331 0.667,0.731 0.88,1.177c0.213,0.447 0.337,0.931 0.363,1.425Z"
          />
    <path id="path11_fill"
          d="M4.121,9.809c-0.432,0.012 -0.858,-0.104 -1.224,-0.333c-0.366,-0.229 -0.656,-0.562 -0.833,-0.955c-0.178,-0.394 -0.235,-0.832 -0.165,-1.258c0.071,-0.426 0.265,-0.822 0.56,-1.137c0.295,-0.316 0.676,-0.538 1.097,-0.637c0.42,-0.1 0.86,-0.073 1.265,0.078c0.405,0.15 0.757,0.416 1.011,0.766c0.254,0.349 0.399,0.766 0.416,1.197c0.017,0.584 -0.197,1.15 -0.595,1.577c-0.398,0.427 -0.949,0.679 -1.532,0.702Z"
          /></g></g></svg>