<?xml version="1.0" encoding="UTF-8" standalone="no"?><!DOCTYPE svg PUBLIC "-//W3C//DTD SVG 1.1//EN" "http://www.w3.org/Graphics/SVG/1.1/DTD/svg11.dtd"><svg width="100%" height="100%" viewBox="0 0 2500 2313" version="1.1" xmlns="http://www.w3.org/2000/svg" xmlns:xlink="http://www.w3.org/1999/xlink" xml:space="preserve" xmlns:serif="http://www.serif.com/" style="fill-rule:evenodd;clip-rule:evenodd;stroke-linejoin:round;stroke-miterlimit:1.41421;"><path d="M995.036,744.317c4.678,0.162 9.355,0.325 14.283,0.032c10.423,0.313 20.438,0.404 30.607,1.178c46.523,2.1 92.92,8.314 138.721,16.591c55.879,10.195 111.126,25.422 164.618,43.868c70.097,23.927 137.742,54.283 202.377,90.163c69.936,38.774 136.612,83.53 197.88,134.298c29.133,24.263 57.1,49.681 84.061,76.945c22.817,23.208 44.73,47.113 65.477,72.176c35.499,42.673 67.359,88.136 94.916,136.625c21.594,38.068 40.456,78.228 55.612,119.355c12.115,34.086 22.251,68.885 28.683,104.648c4.329,25.063 7.59,50.136 8.466,75.701c1.191,26.932 0.244,53.89 -3.242,80.659c-2.168,18.524 -5.814,36.843 -10.273,54.716c-4.961,18.795 -10.741,37.14 -17.994,55.283c-11.555,28.931 -26.375,56.084 -43.643,81.896c-13.846,20.513 -29.483,39.454 -46.751,57.503c-13.28,13.658 -27.785,26.645 -42.855,38.724c-10.514,8.594 -21.19,16.503 -32.43,23.511c-8.362,5.574 -16.905,10.871 -25.617,15.881c-6.282,3.74 -12.968,7.259 -19.653,10.774c-48.379,25.555 -100.619,43.63 -153.864,55.778c-9.251,2.222 -18.581,4.102 -27.97,5.638c-11.676,1.985 -23.355,3.974 -34.783,5.501c-15.618,2.277 -31.329,3.865 -47.087,4.758c-19.308,1.407 -38.363,2.354 -57.574,2.617c-49.731,0.419 -99.422,-2.945 -148.643,-10.061c-60.491,-8.531 -120.513,-22.778 -178.93,-40.931c-79.611,-24.94 -156.832,-58.135 -229.878,-98.005c-73.859,-40.32 -144.362,-87.761 -208.961,-142.139c-53.05,-44.486 -102.516,-93.588 -146.68,-147.562c-33.712,-41.098 -64.032,-84.526 -90.71,-130.744c-22.004,-38.291 -41.114,-77.989 -56.022,-119.578c-12.772,-33.852 -22.247,-68.886 -28.679,-104.649c-4.329,-25.063 -7.591,-50.136 -8.72,-75.242c-1.189,-26.929 -0.245,-53.89 2.584,-80.418c2.168,-18.527 5.403,-37.068 9.863,-54.944c4.754,-19.373 10.883,-38.383 18.338,-56.885c11.556,-28.93 26.376,-56.083 43.647,-81.895c13.846,-20.513 29.48,-39.451 46.748,-57.503c13.785,-14.576 28.946,-27.801 44.678,-40.121c10.513,-8.593 21.597,-16.282 32.429,-23.508c8.362,-5.575 16.906,-10.873 25.617,-15.884c6.282,-3.737 12.968,-7.255 19.654,-10.774c48.379,-25.552 101.025,-43.405 154.267,-55.553c9.252,-2.222 18.583,-4.103 27.974,-5.638c12.469,-2.267 24.999,-4.191 37.575,-5.768c15.95,-2.047 31.645,-3.632 47.09,-4.758l39.177,-1.908c6.406,-0.088 12.402,-0.397 18.554,-0.026c2.386,-0.488 4.928,-0.296 7.063,-0.325Zm-4.498,90.72c-6.813,-0.134 -13.876,0.192 -20.94,0.517l-39.177,1.908c-16.512,1.139 -33.119,3.424 -49.726,5.706c-12.747,2.001 -25.493,4.003 -38.084,6.689c-9.133,2.18 -18.677,4.14 -27.404,6.542c-7.815,1.706 -15.477,4.095 -23.136,6.484c-45.71,13.873 -90.004,33.891 -129.783,61.158c-5.208,3.724 -10.423,7.451 -15.885,11.637c-7.535,6.038 -15.07,12.079 -22.199,18.345c-9.449,8.577 -18.488,17.382 -26.967,27.088c-13.375,14.797 -25.116,30.49 -35.887,47.305c-13.029,20.962 -23.611,43.259 -31.902,66.207c-5.282,15.47 -9.644,31.238 -13.065,47.223c-3.005,15.262 -5.061,30.695 -6.159,46.211c-3.268,44.805 1.341,89.727 11.79,133.66c7.06,30.73 16.913,61.194 28.995,90.489c14.876,36.788 33.299,71.932 54.202,105.442c25.585,41.436 54.961,80.77 86.915,117.327c39.488,44.782 82.56,86.272 128.787,124.057c58.353,47.38 121.448,88.992 187.807,124.615c67.994,36.521 139.91,66.815 213.71,89.779c53.021,16.398 107.233,28.67 162.073,35.909c43.187,6.257 86.801,9.095 130.434,8.486c19.872,-0.502 39.744,-1.003 59.71,-2.647c15.925,-1.334 31.799,-3.229 47.591,-5.68c12.086,-1.764 24.015,-4.212 35.945,-6.659l27.407,-6.543c7.408,-1.927 14.41,-4.078 21.411,-6.23c45.3,-14.094 89.093,-33.194 128.215,-60.221c5.868,-3.964 11.74,-7.925 17.453,-12.57c7.535,-6.042 15.071,-12.083 22.199,-18.346c10.048,-8.721 19.448,-18.162 28.126,-28.246c12.523,-14.2 23.963,-29.318 34.223,-45.229c12.78,-20.5 23.772,-42.575 32.062,-65.523c5.495,-14.921 9.515,-30.046 12.717,-45.618c3.255,-15.713 5.562,-31.606 6.911,-47.595c3.271,-44.805 -1.087,-90.189 -10.719,-133.673c-7.063,-30.73 -16.913,-61.194 -28.999,-90.489c-14.875,-36.791 -33.298,-71.935 -54.202,-105.442c-25.737,-42.12 -55.524,-81.678 -88.041,-119.136c-41.273,-47.621 -87.605,-90.828 -136.606,-130.119c-55.025,-43.773 -113.882,-82.471 -175.499,-116.105c-61.719,-33.695 -126.341,-61.774 -193.087,-83.898c-43.853,-14.406 -88.516,-26.222 -133.757,-35.385c-41.784,-7.877 -84.161,-13.687 -126.825,-16.07c-10.829,-0.537 -21.662,-1.074 -32.084,-1.386c-4.677,-0.163 -10.012,-0.092 -14.69,-0.254c-1.067,0.013 -2.386,0.488 -3.86,0.28Z" style="fill-rule:nonzero;"/><path d="M1252.7,540.079c8,-0.104 16.411,0.016 24.038,0.602c17.225,0.462 34.08,1.611 50.927,2.763c48.171,3.939 95.307,12.679 142.13,23.931c37.558,9.773 74.475,21.861 110.54,36.196c31.671,12.815 62.59,27.01 92.376,43.272c28.976,15.816 57.197,33.005 84.292,52.268c27.169,19.304 53.404,39.892 78.614,61.692c30.142,26.291 58.369,55.114 84.246,85.333c25.877,30.223 49.779,61.152 71.356,94.395c24.126,37.312 45.896,76.024 64.534,116.6c17.756,38.305 32.781,78.7 44.609,119.137c13.616,45.885 23.283,93.19 29.341,140.313c6.075,47.678 8.165,95.78 6.25,143.805c-2.142,52.315 -8.752,104.352 -19.758,155.54c-11.074,49.398 -26.164,98.392 -45.336,145.157c-12.223,30.137 -26.157,59.552 -41.735,88.1c-17.858,32.702 -37.737,64.26 -59.521,94.489c-23.671,32.687 -49.379,64.257 -77.567,93.581c-38.223,39.942 -79.777,76.281 -124.689,108.098c-48.799,35.063 -100.586,64.921 -154.98,88.881c-55.963,24.895 -114.123,44.115 -174.11,56.976c-61.965,13.573 -124.969,20.311 -187.82,19.985c-34.828,-0.234 -69.725,-2.291 -104.683,-6.171c-35.366,-4.105 -70.015,-10.497 -104.317,-18.492c-40.454,-9.558 -80.108,-22.235 -118.605,-37.917c-32.485,-13.261 -65.035,-28.345 -96.049,-45.277c-26.984,-14.733 -53.199,-30.834 -78.543,-48.239c-25.021,-17.232 -49.697,-36.069 -72.807,-55.836c-28.036,-23.352 -54.163,-49.239 -78.719,-76.057c-27.036,-29.067 -51.344,-60.217 -74.116,-93.216c-24.878,-35.935 -47.025,-73.957 -66.412,-113.157c-21.086,-41.911 -38.246,-86.156 -52.21,-130.44c-14.436,-46.332 -25.324,-94.304 -31.821,-142.563c-6.907,-48.48 -9.042,-97.933 -7.946,-146.517c1.394,-53.322 7.84,-106.393 19.251,-158.499c10.616,-49.458 25.383,-97.934 44.144,-144.912c13.248,-33.006 28.917,-65.588 46.217,-97.282c18.049,-33.071 38.549,-64.801 60.683,-95.642c21.52,-29.868 44.991,-58.281 70.259,-85.053c38.976,-41.319 82.065,-79.5 128.543,-112.252c46.859,-33.441 97.452,-63.052 150.245,-86.993c37.832,-16.906 77.329,-32.012 116.952,-43.47c38.299,-11.188 77.313,-19.767 116.773,-25.679c28.909,-4.693 58.082,-7.582 87.351,-8.651c9.979,-0.814 19.578,-0.938 29.181,-1.062c4.394,-0.286 9.195,-0.348 13.212,0.056c2.07,2.028 3.671,2.005 5.68,2.207Zm-4.834,90.362l-14.4,0.185c-8.789,0.57 -17.606,0.228 -26.392,0.798c-25.571,1.243 -51.08,4.309 -76.18,7.597c-38.623,5.745 -76.743,14.445 -113.95,26.326c-32.469,9.996 -64.876,21.818 -95.994,36.131c-47.272,21.587 -92.783,47.715 -134.935,78.357c-41.584,29.788 -80.209,63.505 -115.341,100.684c-22.766,24.236 -43.897,49.365 -63.365,76.297c-19.843,27.618 -38.054,56.129 -54.228,85.753c-15.453,28.319 -29.262,57.505 -41.358,87.413c-16.946,41.719 -30.223,85.443 -39.855,130.261c-9.979,46.416 -15.5,94.376 -17.036,141.824c-1.259,44.021 1.092,88.072 7.027,131.71c5.925,43.465 15.463,86.36 28.514,128.24c12.613,39.971 28.016,79.673 46.963,117.737c17.659,35.573 38.487,70.194 61.259,103.189c19.763,28.632 41.586,55.785 65.295,81.245c22.45,23.882 45.688,47.295 70.836,68.179c42.144,35.525 87.759,66.715 136.153,93.1c29.379,16.037 59.892,30.011 90.743,42.38c32.452,12.349 65.659,23.322 99.179,31.781c29.878,7.37 60.507,13.359 91.043,16.611c32.572,4.368 65.458,6.223 99.065,5.79c56.826,-0.28 113.46,-6.028 168.678,-17.912c53.619,-11.868 106.259,-28.738 156.295,-51.504c48.87,-21.61 95.954,-48.668 139.297,-79.555c40.142,-28.966 77.582,-61.505 111.861,-97.217c23.925,-25.389 46.215,-51.676 66.435,-79.985c20.627,-28.084 39.59,-57.971 56.106,-89.197c13.915,-25.493 26.574,-52.561 37.631,-79.614c17.323,-42.406 31.007,-85.909 40.671,-129.815c10.01,-45.505 15.973,-92.328 17.916,-139.555c1.696,-42.891 -0.247,-86.876 -5.739,-129.217c-5.488,-42.344 -14.178,-84.643 -26.443,-126.216c-11.292,-38.223 -25.447,-75.542 -42.344,-111.639c-16.874,-36.04 -36.512,-70.901 -58.499,-104.365c-18.596,-28.036 -39.168,-55.361 -61.276,-80.841c-24.181,-27.508 -49.931,-54.082 -77.589,-78.124c-22.6,-19.484 -46.222,-37.752 -70.764,-54.726c-23.706,-16.511 -48.291,-31.722 -73.647,-45.566c-29.758,-16.252 -60.614,-30.406 -92.344,-42.358c-29.224,-11.48 -59.573,-20.897 -89.858,-28.481c-40.801,-10.65 -82.664,-17.404 -124.839,-21.646c-16.066,-1.621 -32.104,-2.324 -48.138,-3.027c-7.216,-0.364 -14.432,-0.729 -21.619,-0.179c-1.631,-0.892 -3.233,-0.869 -4.834,-0.849Z" style="fill-rule:nonzero;"/><path d="M1560.54,624.347c3.011,0.13 6.582,0.043 9.593,0.17c6.913,0.234 14.159,0.66 21.17,1.487c18.126,1.903 35.996,5.741 53.304,11.448c19.357,6.353 37.921,14.909 55.325,25.5c12.324,7.649 23.947,16.509 34.78,25.984c7.757,7.161 15.282,14.729 22.577,22.7c5.214,6.231 10.429,12.461 15.077,18.902c3.463,4.687 6.695,9.772 9.927,14.859c18.86,29.139 32.287,61.585 41.905,94.519c1.445,5.13 2.891,10.26 4.004,15.197c1.543,5.723 2.754,11.253 4.065,17.379c1.602,7.903 3.109,15.214 4.382,22.928c1.666,10.091 3.098,20.578 4.531,31.069c1.692,13.86 2.486,27.742 3.053,42.022c0.683,18.651 1.041,37.11 0.504,55.589c-0.879,23.651 -2.649,47.321 -5.084,70.614c-3.74,31.658 -8.473,62.746 -14.661,94.069c-7.281,35.412 -15.944,70.525 -25.968,105.26c-11.034,38.188 -23.953,75.822 -38.093,113.29c-16.503,43.08 -34.894,85.613 -54.834,127.782c-20.272,41.983 -41.865,83.197 -65.441,123.27c-23.713,41.068 -49.405,80.99 -76.187,119.751c-25.851,37.146 -53.024,73.53 -81.951,108.368c-24.679,29.774 -50.348,58.974 -77.436,86.818c-25.034,25.812 -50.827,50.644 -78.039,74.122c-18.794,16.529 -38.581,32.485 -58.795,47.654c-20.213,15.174 -40.853,29.561 -62.255,42.975c-18.683,11.761 -37.465,22.925 -57.105,32.524c-16.826,8.538 -33.979,16.887 -51.66,23.859c-28.046,11.184 -56.947,20.803 -86.535,26.268c-24.89,4.957 -50.732,7.754 -76.271,6.966c-14.061,-0.065 -28.084,-1.719 -41.875,-3.776c-13.557,-2.461 -27.212,-5.514 -40.502,-9.964c-19.276,-6.295 -37.485,-15.2 -54.199,-25.922c-12.655,-7.845 -24.048,-17.105 -35.209,-26.769c-7.757,-7.165 -15.286,-14.733 -22.346,-23.104c-5.051,-5.596 -9.724,-11.522 -13.987,-17.74c-3.134,-4.492 -6.269,-8.984 -9.071,-13.287c-18.196,-28.758 -31.759,-60.211 -41.381,-93.142c-1.442,-5.13 -2.887,-10.259 -4.004,-15.197c-1.637,-6.315 -3.277,-12.63 -4.355,-19.156c-2.034,-8.691 -3.502,-17.59 -4.97,-26.492c-1.432,-10.491 -2.865,-20.982 -3.971,-31.281c-1.69,-13.86 -2.253,-28.143 -3.05,-42.022c-0.684,-18.651 -0.479,-37.322 0.058,-55.8c0.879,-23.651 2.65,-47.321 5.316,-71.014c3.743,-31.662 8.707,-63.154 15.223,-94.285c7.158,-34.519 15.537,-68.872 25.468,-102.864c11.132,-37.595 23.585,-74.422 37.263,-111.087c15.669,-40.876 32.664,-80.99 51.308,-120.154c20.362,-42.891 42.437,-84.947 66.174,-126.066c24.122,-41.792 49.894,-82.609 77.254,-122.356c24.592,-35.727 51.068,-70.903 78.4,-104.511c24.112,-29.509 49.301,-58.121 75.516,-85.779c25.5,-26.616 51.758,-52.256 79.666,-76.942c18.563,-16.125 37.221,-31.658 56.871,-46.618c19.091,-14.748 38.605,-28.712 58.883,-41.699c17.558,-11.338 35.213,-22.082 53.626,-31.847c17.291,-9.345 35.242,-18.31 53.389,-26.086c23.874,-10.247 48.419,-18.854 73.465,-25.76c21.782,-5.68 44.418,-9.788 67.118,-11.715c5.924,-0.338 12.076,-1.08 18.329,-1.227l8.04,-0.189c1.888,0.551 2.776,0.528 3.671,0.508Zm-2.646,90.808c-5.69,-0.065 -11.282,0.466 -16.643,0.593c-17.437,1.204 -34.581,4.192 -51.198,8.557c-23.237,5.911 -45.517,13.983 -67.508,23.833c-15.331,6.718 -30.233,14.218 -44.476,22.101c-16.753,9.149 -33.069,19.077 -48.894,29.751c-17.792,11.738 -34.923,23.859 -51.855,37.166c-17.73,13.921 -35.362,28.435 -52.334,43.33c-23.468,20.809 -46.175,42.592 -67.564,65.139c-24.24,25.194 -47.386,51.559 -69.875,78.299c-24.55,29.605 -47.924,60.165 -70.07,91.609c-24.727,35.182 -48.189,71.237 -70.341,108.095c-21.58,35.854 -41.511,72.661 -60.119,110.233c-18.609,37.573 -35.994,75.315 -51.726,114.01c-13.371,33.08 -25.75,66.734 -36.579,100.742c-10.091,31.215 -18.863,63.196 -26.74,95.153c-7.177,30.75 -13.231,61.074 -17.636,92.354c-3.46,24.309 -6.028,48.594 -7.372,73.049c-1.331,19.042 -1.769,38.136 -1.315,57.22c0.332,14.686 0.895,28.969 2.353,43.232c0.967,11.295 2.598,22.971 4.46,34.246c1.464,8.903 3.17,17.398 5.201,26.089c1.738,6.907 3.476,13.817 5.449,20.324c1.442,5.127 3.219,10.449 4.895,15.172c1.482,3.541 2.728,7.483 4.209,11.021c1.152,3.35 2.536,6.295 3.919,9.241c9.114,20.832 21.379,40.798 36.726,57.711c2.604,3.115 5.117,5.635 7.956,8.349c3.928,3.877 8.088,7.357 12.248,10.83c6.478,4.81 12.948,9.621 20.119,13.225c9.583,5.533 19.862,9.856 30.275,13.182c16.399,5.176 33.858,7.741 51.26,8.125c19.849,0.722 39.769,-1.735 59.162,-5.566c11.556,-2.461 22.444,-5.299 33.566,-8.541c13.375,-4.089 26.652,-8.769 39.499,-14.238c15.609,-6.5 30.864,-13.82 45.7,-21.929c17.291,-9.341 33.917,-19.067 50.121,-29.578c17.058,-11.139 33.774,-22.791 50.127,-34.942c19.488,-14.644 38.383,-30.061 56.64,-46.215c24.032,-21.02 46.973,-43.206 69.488,-66.174c23.774,-24.393 46.458,-49.948 68.149,-76.075c24.445,-29.37 47.803,-59.905 70.403,-91.417c25.714,-36.153 50.345,-73.468 72.993,-111.929c21.581,-35.857 41.511,-72.665 60.449,-110.049c18.94,-37.38 35.993,-75.31 51.728,-114.009c13.834,-33.885 26.118,-68.127 37.41,-102.946c10.458,-32.615 19.927,-65.8 27.277,-99.134c6.946,-30.346 12.902,-61.266 17.404,-91.954c3.327,-23.309 5.66,-47.194 7.102,-71.056c1.335,-19.094 1.439,-38.357 0.987,-57.409c-0.578,-14.491 -1.473,-28.969 -2.686,-43.421c-0.966,-11.295 -2.828,-22.57 -4.687,-33.846c-1.444,-8.752 -3.181,-17.453 -5.208,-26.088c-1.735,-6.908 -3.473,-13.818 -5.446,-20.325c-1.467,-5.11 -3.099,-10.17 -4.895,-15.174c-1.481,-3.539 -2.728,-7.48 -4.209,-11.019c-9.609,-23.8 -22.694,-46.924 -39.886,-65.978c-2.604,-3.112 -5.778,-6.016 -8.945,-8.919c-3.929,-3.88 -8.092,-7.356 -12.252,-10.833c-6.556,-4.855 -13.383,-9.334 -20.448,-13.413c-9.911,-5.726 -20.425,-9.645 -31.17,-13.164c-10.976,-3.118 -22.085,-5.24 -33.663,-6.552c-4.231,-0.299 -8.466,-0.596 -12.369,-0.7c-2.116,-0.15 -4.798,-0.088 -6.913,-0.234c0.097,0.592 -0.798,0.615 -2.253,0.846Z" style="fill-rule:nonzero;"/><path d="M1625.71,804.15c10.204,0.006 21.027,0.153 31.443,0.527c27.983,1.052 56.015,4.04 83.881,8.603c25.614,4.385 51.062,10.338 75.539,18.329c34.135,10.774 67.346,25.523 97.403,45.039l-12.975,-4.309c12.061,9.213 20.489,16.827 32.55,26.04c39.093,25.024 49.766,36.072 58.613,47.679c14.1,17.912 26.401,37.361 36.075,57.832c7.267,15.375 13.244,31.327 17.87,47.692c3.121,10.982 5.839,22.199 7.535,33.507c1.628,8.398 2.454,17.264 3.467,25.529c0.566,6.555 0.918,12.746 1.269,18.934c1.631,42.81 -4.287,85.557 -15.747,127.078c-1.895,6.012 -3.177,12.161 -5.078,18.173c-2.464,7.815 -4.932,15.63 -7.799,23.68c-3.63,10.448 -7.874,20.767 -12.119,31.085c-5.649,13.671 -11.864,27.101 -18.631,40.255c-7.988,15.917 -16.379,32.068 -25.597,47.718c-12.158,20.783 -24.953,40.459 -38.767,60.237c-15.403,21.675 -31.232,42.608 -47.888,63.043c-17.088,20.66 -34.85,40.753 -53.258,60.246c-20.302,21.555 -41.244,42.003 -62.802,62.314c-25.72,23.744 -52.341,46.493 -79.803,68.199c-29.848,23.621 -60.732,46.37 -92.474,67.645c-35.148,23.735 -71.148,45.993 -107.786,67.147c-38.924,21.978 -78.67,42.465 -119.153,61.419c-36.54,16.672 -74.122,32.472 -111.753,46.331c-36.424,13.16 -73.078,24.986 -110.185,35.099c-35.438,9.568 -71.266,17.624 -107.389,24.146c-31.303,5.289 -63.03,9.843 -94.405,12.225c-27.7,2.227 -56.041,3.353 -83.816,2.669c-33.074,-0.569 -66.197,-3.079 -98.773,-8.358c-28.881,-4.466 -57.408,-11.1 -85.176,-20.146c-33.943,-11.373 -66.751,-26.352 -96.81,-45.872l-13.066,-8.681c-12.043,-8.776 -23.501,-18.388 -34.763,-28.599c-10.436,-9.706 -19.875,-20.48 -29.129,-31.853c-13.886,-17.545 -25.975,-36.625 -35.646,-57.096c-7.127,-15.133 -12.964,-30.841 -17.447,-46.957c-3.121,-10.982 -5.836,-22.195 -7.535,-33.503c-1.227,-8.636 -2.454,-17.268 -3.466,-25.532c-0.564,-6.556 -0.915,-12.744 -1.27,-18.931c-1.631,-42.813 4.287,-85.561 15.748,-127.082c1.897,-6.012 3.18,-12.161 5.078,-18.173c2.464,-7.812 4.931,-15.63 7.802,-23.676c3.626,-10.452 7.87,-20.767 12.115,-31.086c5.403,-12.955 11.425,-25.769 17.447,-38.588c7.776,-16.288 16.379,-32.071 25.597,-47.718c11.757,-20.552 24.956,-40.459 38.367,-60.006c13.814,-19.774 28.458,-39.043 43.314,-57.945c17.837,-22.102 36.319,-43.093 55.816,-64.182c20.494,-22.154 42.026,-43.435 64.391,-64.215c24.562,-22.537 49.554,-44.343 75.587,-65.269c28.24,-22.674 57.265,-44.351 87.023,-64.992c35.531,-24.454 72.019,-47.488 109.377,-69.049c35.027,-20.223 70.91,-38.972 107.025,-56.383c38.343,-18.205 77.325,-35.303 116.968,-50.322c34.786,-13.202 70.213,-25.301 105.686,-35.457c33.436,-9.96 67.323,-18.218 101.042,-24.904c26.401,-5.413 53.444,-9.716 79.89,-13.186c24.013,-3.046 48.448,-5.354 73.117,-6.327c12.028,-0.554 24.27,-0.736 36.512,-0.921c2.672,0.911 4.921,1.09 6.959,0.898Zm-3.555,90.544c-9.589,0.13 -19.178,0.261 -28.556,0.755c-23.035,1.009 -46.667,2.855 -69.657,5.804c-25.03,3.141 -50.436,7.486 -75.629,12.2c-31.685,6.493 -62.727,14.094 -93.94,23.263c-34.857,10.292 -69.477,21.923 -103.248,35.027c-30.737,11.848 -61.24,25.034 -91.319,38.959c-33.299,15.784 -66.571,32.537 -98.594,50.531c-56.928,31.879 -111.709,67.449 -163.993,106.48c-47.113,35.558 -92.12,73.834 -134.405,114.964c-18.088,17.821 -35.551,36.267 -52.357,55.302c-15.897,18.026 -31.368,36.791 -46.221,55.693c-16.099,20.651 -31.12,42.122 -45,64.325c-10.618,16.946 -21.021,34.259 -30.193,51.846c-7.227,13.515 -13.629,27.534 -20.028,41.553c-4.649,10.546 -8.87,21.835 -12.688,32.889c-3.208,9.121 -6.118,18.344 -8.727,27.654l-5.625,20.943c-1.494,5.781 -2.376,11.695 -3.867,17.476l-2.138,13.033c-4.186,29.946 -4.889,60.341 0.114,90.391c0.732,4.987 1.865,9.742 2.998,14.494c1.796,6.829 3.805,14.029 6.217,20.995c3.499,9.778 7.187,18.954 12.294,27.804c6.725,12.572 14.665,24.455 23.706,35.48c6.933,8.287 14.67,16.109 22.811,23.699c7.714,6.855 16.233,13.242 24.543,19.263c12.232,8.174 25.063,15.517 38.269,21.656c15.695,7.656 31.957,13.508 48.408,18.759c20.76,6.204 42.305,10.969 63.612,14.403c26.633,4.287 53.623,6.402 80.779,6.949c26.138,0.642 52.445,-0.293 78.726,-2.19c28.103,-2.461 56.188,-5.892 84.034,-10.66c34.145,-5.951 67.841,-13.606 101.299,-22.6c34.798,-9.313 69.134,-20.278 102.89,-32.856c33.182,-12.271 65.933,-25.281 98.236,-39.997c34.929,-15.745 69.413,-33.195 103.258,-51.751c55.797,-30.741 109.681,-64.801 161.435,-102.546c26.501,-19.223 52.229,-39.489 77.124,-60.751c21.497,-18.297 42.417,-37.261 62.73,-56.865c18.886,-18.28 37.152,-37.189 54.769,-56.695c16.81,-18.58 32.963,-37.744 48.427,-57.457c16.145,-20.713 31.365,-42.131 45.616,-64.189c11.422,-17.412 22.026,-35.347 31.779,-53.746c7.421,-14.114 14.624,-28.599 20.812,-42.989c4.837,-11.149 9.459,-22.668 13.466,-34.321c3.209,-9.121 6.12,-18.344 8.73,-27.654l5.624,-20.946c1.494,-5.781 2.373,-11.695 3.867,-17.473l2.139,-13.036c4.589,-30.177 4.866,-61.311 -0.352,-91.729c-0.729,-4.987 -1.865,-9.739 -2.997,-14.495c-1.797,-6.829 -3.806,-14.029 -6.218,-20.995c-3.71,-10.145 -8.013,-19.458 -12.932,-28.91c-6.835,-12.767 -15.493,-24.976 -25.148,-36.118c-7.551,-8.424 -15.5,-16.617 -24.041,-23.973c-8.118,-6.621 -16.64,-13.01 -25.347,-18.797c-12.854,-8.314 -26.297,-15.79 -40.121,-22.069c-16.096,-7.422 -32.761,-13.04 -49.616,-18.059c-19.103,-5.192 -38.396,-9.785 -57.857,-12.808c-22.573,-3.358 -45.311,-5.493 -68.114,-6.397c-8.17,-0.198 -15.934,-0.631 -23.889,-0.462c-1.89,0.675 -3.888,0.995 -5.895,0.944Zm-377.771,-894.775c1.966,0 2.457,0 4.423,0.511c3.441,0.511 7.373,1.536 10.814,3.072c6.386,2.562 11.792,6.66 16.216,11.269c4.427,5.12 7.864,10.755 9.83,17.414c0.983,3.073 1.475,5.632 1.966,8.704l0,286.814c0,1.537 0,3.073 -0.491,4.609c-0.984,5.12 -2.458,10.244 -4.916,14.853c-1.966,4.098 -4.915,7.682 -7.864,10.754c-4.915,4.609 -10.318,8.196 -16.708,10.758c-6.389,2.047 -13.27,3.073 -19.66,2.559c-4.423,-0.512 -8.847,-1.537 -12.779,-3.073c-4.915,-2.051 -9.338,-4.609 -13.267,-8.193c-4.427,-4.101 -7.864,-8.707 -10.322,-14.342c-1.966,-4.098 -3.44,-8.196 -3.932,-12.805c0,-1.536 -0.491,-3.072 -0.491,-4.609l0,-282.201l0,-4.609c0.488,-3.587 0.983,-7.171 2.457,-10.755c2.458,-6.149 5.898,-12.294 10.813,-16.903c4.915,-4.609 10.319,-8.193 16.708,-10.755c3.441,-1.025 7.373,-2.05 10.813,-2.561l4.424,0c0.488,-0.511 0.983,-0.511 1.966,-0.511Zm698.03,187.598c0.684,-0.199 1.53,0.293 2.214,0.094c1.533,0.293 2.64,0.342 4.173,0.635c4.173,0.635 8.261,2.406 11.666,4.368c6.217,2.998 11.405,7.77 15.656,13.183c3.997,5.856 7.057,12.353 8.326,19c0.593,3.889 0.928,8.222 0.157,12.508c-0.518,3.841 -1.289,8.128 -3.167,12.366c-0.769,1.331 -0.856,2.464 -1.625,3.792l-1.022,1.774l-140.078,242.621l-1.023,1.774c-0.768,1.331 -1.282,2.217 -2.473,3.304c-2.735,3.743 -6.569,7.444 -10.748,9.765c-4.591,3.146 -9.739,5.391 -15.169,6.614c-5.198,1.139 -10.992,1.344 -16.698,0.417c-6.132,-1.175 -12.173,-3.483 -17.707,-6.68c-5.279,-3.635 -9.618,-7.916 -13.443,-13.085c-2.383,-3.736 -4.339,-7.232 -5.354,-11.366c-1.446,-4.385 -2.377,-9.651 -2.028,-14.182c0.006,-5.911 1.289,-11.083 3.255,-16.454c0.768,-1.331 0.856,-2.464 1.624,-3.795l1.025,-1.774l140.076,-242.618l2.05,-3.548c1.703,-1.973 3.665,-4.388 5.371,-6.36c2.9,-3.06 6.396,-5.179 9.892,-7.301c3.496,-2.122 7.584,-3.307 11.676,-4.495c2.044,-0.593 3.834,-0.742 6.305,-1.091c1.79,-0.149 2.213,0.098 4.003,-0.055c1.96,0.54 2.64,0.342 3.066,0.586l0,0.003Zm-1396.64,-0.212c1.79,0.15 2.213,-0.094 4.26,0.498c1.791,0.15 4.258,0.499 6.305,1.091c4.089,1.188 7.754,2.62 11.507,5.185c3.492,2.122 6.819,4.935 9.719,7.991c1.449,1.53 2.897,3.06 3.926,4.831l2.047,3.547l140.076,242.621c0.26,0.443 0.768,1.332 1.025,1.774c0.768,1.332 1.279,2.217 1.624,3.796c1.966,5.37 3.249,10.543 3.255,16.45c-0.078,4.779 -0.586,9.798 -2.028,14.182c-1.929,6.068 -5.05,11.689 -9.179,16.536c-4.082,4.723 -9.361,8.365 -15.149,11.112c-3.661,1.524 -8.007,2.848 -12.176,3.483c-5.706,0.928 -11.074,0.479 -16.699,-0.413c-5.429,-1.224 -10.577,-3.47 -15.168,-6.618c-3.889,-2.9 -7.489,-6.17 -10.748,-9.765c-0.768,-1.331 -1.706,-1.972 -2.474,-3.303l-1.022,-1.774l-140.078,-242.618l-1.023,-1.774c-0.768,-1.331 -1.282,-2.22 -1.627,-3.795c-1.875,-4.238 -3.157,-9.407 -3.079,-14.186c-0.068,-4.12 0.212,-8.239 0.836,-12.313c1.693,-6.891 4.753,-13.388 9.007,-18.801c4.254,-5.413 10.123,-9.986 16.34,-12.984c3.662,-1.52 8.004,-2.845 12.174,-3.483c1.536,-0.293 2.643,-0.339 4.176,-0.632c0.683,0.196 1.53,-0.292 2.213,-0.097c0.169,-0.69 0.853,-0.488 1.96,-0.541Zm-497.497,507.187c1.823,-0.081 2.265,0.176 3.841,0.518c2.265,0.172 4.287,0.771 6.305,1.367c2.018,0.602 4.039,1.201 5.816,2.223l3.548,2.051l242.618,140.075l1.774,1.026c1.331,0.768 2.22,1.279 3.304,2.473c4.387,3.669 8.085,7.506 11.047,12.62c3.405,5.371 5.185,11.506 6.276,17.811c0.648,6.051 0.358,12.695 -1.26,18.57c-1.077,3.916 -2.845,8.004 -5.257,11.152c-2.443,4.267 -5.783,7.954 -9.787,10.806c-4.476,3.659 -9.349,5.954 -14.664,7.991c-5.315,1.656 -10.897,2.286 -16.448,1.856c-4.818,-0.569 -9.569,-1.602 -14.188,-3.086c-1.332,-0.768 -2.464,-0.853 -3.796,-1.621l-1.774,-1.025l-242.617,-140.076c-0.443,-0.26 -1.331,-0.768 -1.774,-1.025c-1.331,-0.768 -2.22,-1.279 -3.304,-2.474c-3.743,-2.734 -7.444,-6.568 -9.765,-10.745c-3.008,-4.007 -4.638,-8.355 -6.022,-13.127c-1.188,-4.088 -1.686,-8.349 -1.738,-12.353c0.238,-5.537 1.169,-11.243 3.428,-16.18c1.816,-5.195 5.208,-10.045 8.798,-14.215c2.988,-3.001 6.305,-5.654 9.889,-7.91c5.364,-3.147 11.369,-5.354 17.772,-6.197c1.377,-0.342 2.509,-0.254 4.332,-0.339c0.69,-0.169 1.133,0.088 2.266,0.176c-0.196,-0.683 0.491,-0.853 1.38,-0.342Zm2407.85,-0.276c0.69,0.169 1.381,0.338 1.823,0.081c1.38,0.342 2.513,0.254 4.333,0.335c4.579,0.762 9.651,2.377 13.833,4.499c5.12,2.721 9.352,5.953 13.186,10.546c3.346,3.743 5.804,8.004 7.816,12.515c1.523,3.662 2.848,8.004 2.792,12.008c0.638,4.173 0.14,8.431 -0.358,12.695c-0.696,4.937 -2.327,9.286 -4.645,13.462c-2.714,5.54 -7.056,10.319 -11.887,14.241c-1.331,0.768 -1.972,1.705 -3.304,2.474l-1.774,1.025l-242.617,140.075l-1.774,1.026c-1.331,0.768 -2.217,1.279 -3.796,1.621c-4.238,1.881 -9.406,3.164 -14.185,3.086c-5.55,0.43 -11.132,-0.2 -16.447,-1.856c-5.344,-1.727 -10.319,-4.437 -14.667,-7.991c-3.323,-2.634 -6.283,-5.696 -8.805,-9.104c-3.639,-5.273 -6.39,-11.067 -7.565,-17.196c-1.171,-6.133 -1.217,-12.353 0.319,-18.912c0.941,-4.518 2.767,-9.543 5.335,-13.296c2.962,-5.114 6.66,-8.952 11.048,-12.62c1.328,-0.768 1.969,-1.706 3.3,-2.474l1.774,-1.025l242.621,-140.076l3.548,-2.05c3.353,-1.367 6.256,-2.474 9.853,-3.418c1.987,-0.555 4.049,-0.788 6.11,-0.69c0.686,0.169 1.132,-0.085 2.265,-0.173c0.488,0.853 1.178,1.022 1.868,1.192Z" style="fill-rule:nonzero;"/></svg>